<svg width="153" height="31" viewBox="0 0 153 31" fill="none" xmlns="http://www.w3.org/2000/svg">
<path d="M50.8123 18.1395L53.6467 18.9566C53.3403 19.9525 52.8551 20.8973 52.1656 21.7655C50.5314 23.7828 48.0544 24.7532 45.5009 24.7532C42.8452 24.7532 40.3938 23.7062 38.8616 21.7655C37.3295 19.8759 36.7422 17.5777 36.7422 15.1774C36.7677 12.7004 37.355 10.4022 38.8616 8.56368C40.4448 6.57191 42.8962 5.60156 45.5009 5.60156C48.131 5.60156 50.5824 6.59745 52.1656 8.56368C52.9828 9.5851 53.4935 10.7597 53.8254 11.8833L50.8633 12.394C50.659 11.6279 50.3526 10.9129 49.893 10.3256C48.8716 8.99779 47.2117 8.30833 45.5009 8.30833C43.79 8.30833 42.1302 8.99779 41.1598 10.3256C40.1129 11.6279 39.8064 13.441 39.8064 15.1774C39.8064 16.9138 40.1129 18.7013 41.1598 20.0291C42.1302 21.357 43.79 22.0464 45.5009 22.0209C47.2117 22.0464 48.8716 21.357 49.893 20.0291C50.3015 19.4673 50.608 18.829 50.8123 18.1395Z" fill="#5B0AFF"/>
<path d="M62.6879 24.7532C60.6705 24.7532 58.7554 23.9871 57.5041 22.4805C56.3295 21.025 55.8699 19.3141 55.8699 17.4756C55.8699 15.5859 56.4061 13.824 57.5041 12.4706C58.7299 10.9896 60.6705 10.198 62.6879 10.198C64.6796 10.198 66.6203 10.9385 67.846 12.4706C69.0462 13.9261 69.5058 15.637 69.5058 17.4756C69.5058 19.3907 69.0207 20.9995 67.846 22.4805C66.5948 24.0127 64.7307 24.7532 62.6879 24.7532ZM65.5734 20.7186C66.2373 19.8504 66.4671 18.6502 66.4671 17.4756C66.4671 16.3009 66.2373 15.0752 65.5734 14.207C64.9094 13.3388 63.837 12.9047 62.6879 12.9047C61.5132 12.9047 60.4407 13.3388 59.8023 14.207C59.1384 15.0752 58.9086 16.3009 58.9086 17.4756C58.9086 18.6502 59.1384 19.8504 59.8023 20.7186C60.4407 21.5868 61.5132 22.0464 62.6879 22.0464C63.837 22.0464 64.9094 21.5868 65.5734 20.7186Z" fill="#5B0AFF"/>
<path d="M82.837 11.5769C84.5734 13.0835 84.8543 15.0752 84.8287 17.5266V24.3702H81.9177V17.5266C81.9177 15.969 81.7134 14.5901 80.7431 13.7474C80.1813 13.2367 79.3641 12.9813 78.3938 13.0069C77.6533 13.0324 77.0149 13.2622 76.4786 13.6708C75.9168 14.1304 75.5338 14.8454 75.3806 15.6626C75.2274 16.3775 75.2018 17.3734 75.2018 18.3438V24.3702H72.3163V10.581H74.8699V11.7556L74.9465 11.679C76.019 10.7342 77.449 10.2746 78.7513 10.2235C80.1813 10.1469 81.7389 10.6576 82.837 11.5769Z" fill="#5B0AFF"/>
<path d="M96.5048 10.581H99.3904L94.3599 24.3702H91.4743L86.4694 10.581H89.3549L92.9299 20.7952L96.5048 10.581Z" fill="#5B0AFF"/>
<path d="M103.679 18.2672C103.781 19.1609 104.011 20.0547 104.521 20.7186C105.185 21.5868 106.258 22.0464 107.407 22.0464C108.556 22.0464 109.603 21.5868 110.267 20.7186C110.42 20.5143 110.497 20.3355 110.599 20.1568L113.459 21.3825C113.229 21.7911 112.974 22.1741 112.667 22.5316C111.365 24.0382 109.399 24.8298 107.407 24.7532C105.39 24.6766 103.474 23.9871 102.223 22.4805C101.049 21.025 100.563 19.2631 100.589 17.4756C100.64 15.6115 101.074 13.8751 102.223 12.4706C103.474 10.964 105.39 10.198 107.407 10.198C109.424 10.198 111.314 10.9385 112.565 12.4706C113.714 13.8751 114.199 15.6626 114.199 17.4756C114.199 17.7309 114.174 18.0118 114.148 18.2672H103.679ZM107.407 12.9047C106.258 12.8792 105.185 13.3388 104.521 14.2326C104.138 14.7177 103.909 15.3306 103.781 15.969H111.007C110.88 15.3306 110.65 14.7177 110.267 14.2326C109.603 13.3388 108.556 12.8792 107.407 12.9047Z" fill="#5B0AFF"/>
<path d="M123.625 10.2235C124.34 10.1724 125.055 10.3001 125.77 10.5555V13.2367C125.106 12.9813 124.264 12.8536 123.37 12.9047C122.323 12.9558 121.506 13.3133 120.969 13.8751C120.101 14.7433 119.897 15.9179 119.897 17.3224V24.3702H117.011V10.581H119.565V12.5472C119.897 11.9854 120.331 11.5003 120.918 11.0917C121.71 10.5044 122.68 10.249 123.625 10.2235Z" fill="#5B0AFF"/>
<path d="M138.592 14.207L135.783 14.8965C135.579 14.2581 135.043 13.6197 134.43 13.3133C133.945 13.0579 133.357 12.9047 132.719 12.9047C132.055 12.9047 131.442 13.0324 130.983 13.2622C130.497 13.5431 130.293 13.9006 130.293 14.2326C130.293 14.4879 130.37 14.6922 130.497 14.8454C130.778 15.1518 131.289 15.3817 132.081 15.6115C132.77 15.8158 133.613 16.02 134.455 16.2499C135.553 16.5818 136.294 16.7861 137.162 17.5011C138.235 18.3693 138.796 19.4673 138.694 20.7952C138.592 22.0464 137.877 23.1445 136.805 23.8339C135.707 24.5489 134.353 24.7532 132.974 24.7532C131.11 24.7532 129.476 24.2425 128.25 22.9402C127.561 22.1486 126.897 20.7186 126.795 19.9014L129.553 19.2375C129.578 19.7993 129.859 20.6164 130.319 21.0761C131.008 21.8421 131.978 22.0209 132.949 22.0209C133.715 22.0209 134.736 21.8677 135.221 21.4846C135.579 21.2038 135.707 20.9229 135.783 20.5398C135.783 20.1823 135.681 19.8759 135.4 19.595C135.017 19.2375 134.43 19.0332 133.715 18.829C133 18.6247 132.259 18.4459 131.417 18.2161C130.268 17.9097 129.45 17.6033 128.71 16.9904C127.791 16.3009 127.357 15.2284 127.357 14.2836C127.357 12.6749 128.403 11.3471 129.782 10.7342C130.829 10.2746 131.825 10.1724 132.77 10.198C133.715 10.198 134.762 10.4022 135.681 10.8874C137.034 11.5513 138.107 12.8026 138.592 14.207Z" fill="#5B0AFF"/>
<path d="M143.731 14.3858L141.101 13.1345C141.203 13.0069 141.305 12.8026 141.433 12.6494C142.659 10.964 144.523 10.2235 146.693 10.2235C149.221 10.2235 151.29 11.0917 152.362 13.0835C152.822 13.9517 153.001 14.8965 153.001 15.7136V24.3702H150.473V21.8421C150.115 22.7104 149.221 23.502 148.455 23.9105C147.434 24.4978 146.234 24.7532 145.11 24.7277C143.731 24.7021 142.327 24.0127 141.586 23.0423C140.948 22.123 140.616 21.408 140.616 20.31C140.616 18.8545 141.458 17.4756 142.761 16.7095C144.267 15.8924 145.544 15.8158 147.587 15.5093L150.064 15.1518C149.936 14.4879 149.553 13.9006 148.991 13.5176C148.353 13.0579 147.51 12.8792 146.642 12.9047C145.595 12.9047 144.65 13.2111 144.038 13.9772C143.935 14.1049 143.808 14.2581 143.731 14.3858ZM150.141 17.5011C149.63 17.5777 148.762 17.7309 147.255 18.0118C145.442 18.3182 143.527 18.6502 143.476 20.1313C143.45 21.1527 144.344 22.072 145.621 22.0975C147.23 22.123 149.221 21.2804 149.809 19.5439C150.141 18.7523 150.141 18.0629 150.141 17.5011Z" fill="#5B0AFF"/>
<path d="M4.53198 25.0589C4.17353 25.3769 4.139 25.9272 4.47662 26.2671C5.80647 27.6064 7.37289 28.6917 9.09913 29.4667C11.0895 30.3604 13.2471 30.8211 15.4289 30.8185C17.6107 30.8159 19.7671 30.35 21.7554 29.4515C23.7437 28.5531 25.5185 27.2427 26.9624 25.607L25.6616 24.4587C24.3802 25.9102 22.8053 27.0731 21.0409 27.8703C19.2765 28.6676 17.363 29.0811 15.4268 29.0834C13.4907 29.0857 11.5761 28.6768 9.80982 27.8838C8.30776 27.2094 6.94206 26.2703 5.77692 25.1136C5.43688 24.776 4.89043 24.741 4.53198 25.0589Z" fill="#5B0AFF"/>
<path d="M26.9128 25.6099L22.717 21.4141L21.2701 22.5715L25.6106 26.9121C26.4209 26.2176 26.8163 25.7546 26.9128 25.6099Z" fill="#5B0AFF"/>
<path d="M22.9364 9.13057C21.595 7.49128 19.9084 6.32487 17.8556 5.80236C15.8029 5.27986 13.6368 5.42876 11.6749 6.22722C9.71298 7.02568 8.05849 8.43169 6.95401 10.2391C5.84952 12.0465 5.35316 14.1603 5.53769 16.2704L7.3672 16.1104C7.21686 14.3913 7.62125 12.6692 8.52107 11.1967C9.42089 9.72422 10.7688 8.57874 12.3672 7.92823C13.9655 7.27773 15.7303 7.15642 17.4026 7.5821C19.075 8.00779 20.5669 8.95806 21.6598 10.2936L22.9364 9.13057Z" fill="#5B0AFF"/>
<path d="M8.4565 21.1082C8.06432 21.4297 8.00418 22.0118 8.3606 22.3725C9.62087 23.6481 11.2083 24.5623 12.9567 25.0091C15.0027 25.5321 17.1622 25.3878 19.1205 24.5974C21.0787 23.807 22.7333 22.4117 23.843 20.615C24.9527 18.8183 25.4595 16.7142 25.2896 14.6093L23.459 14.7571C23.5975 16.4719 23.1846 18.1862 22.2805 19.65C21.3764 21.1137 20.0285 22.2504 18.4331 22.8944C16.8377 23.5383 15.0783 23.6559 13.4114 23.2299C12.0423 22.8799 10.7944 22.1783 9.78788 21.2016C9.42393 20.8484 8.84869 20.7867 8.4565 21.1082Z" fill="#5B0AFF"/>
<path d="M25.3217 14.6112V15.8081C25.3217 16.106 25.0803 16.3474 24.7825 16.3474H20.2578C19.7783 16.3474 19.3897 15.9587 19.3897 15.4793C19.3897 14.9999 19.7783 14.6112 20.2578 14.6112H25.3217Z" fill="#5B0AFF"/>
<path d="M5.50001 16.3474V15.1505C5.50001 14.8526 5.74145 14.6112 6.03929 14.6112H10.564C11.0434 14.6112 11.4321 14.9999 11.4321 15.4793C11.4321 15.9587 11.0434 16.3474 10.564 16.3474H5.50001Z" fill="#5B0AFF"/>
<path d="M27.0197 5.27859C24.905 2.85485 22.0848 1.15365 18.9545 0.413497C15.8243 -0.32666 12.5409 -0.0686643 9.56462 1.15131C6.58837 2.37129 4.06853 4.49209 2.35835 7.21636C0.802264 9.69519 -0.0124885 12.5606 0.00014471 15.4755C0.00222132 15.9546 0.416029 16.3189 0.894293 16.2899C1.37256 16.2609 1.73384 15.8494 1.73519 15.3702C1.74237 12.8173 2.46445 10.3109 3.82792 8.13889C5.34552 5.72139 7.58162 3.83941 10.2227 2.75681C12.8638 1.67421 15.7775 1.44526 18.5553 2.10207C21.3331 2.75888 23.8356 4.26852 25.7122 6.41933L27.0197 5.27859Z" fill="#5B0AFF"/>
<path d="M27.0559 5.28097L21.7026 10.3449C21.4615 10.0314 20.8056 9.28872 20.1111 8.82573L21.7026 7.81295L25.6091 3.90648C25.7538 4.00293 26.2457 4.41287 27.0559 5.28097Z" fill="#5B0AFF"/>
<rect x="16.9297" y="13.6016" width="1.73621" height="3.6171" rx="0.868104" fill="#5B0AFF"/>
<rect x="14.6172" y="11.8633" width="1.73621" height="7.08952" rx="0.868104" fill="#5B0AFF"/>
<rect x="12.1562" y="13.6016" width="1.73621" height="3.6171" rx="0.868104" fill="#5B0AFF"/>
</svg>
