<svg width="20" height="20" viewBox="0 0 20 20" fill="none" xmlns="http://www.w3.org/2000/svg">
<path d="M14.1641 15.3588H10.8307L7.12239 17.8254C6.57239 18.1921 5.83073 17.8004 5.83073 17.1338V15.3588C3.33073 15.3588 1.66406 13.6921 1.66406 11.1921V6.19206C1.66406 3.69206 3.33073 2.02539 5.83073 2.02539H14.1641C16.6641 2.02539 18.3307 3.69206 18.3307 6.19206V11.1921C18.3307 13.6921 16.6641 15.3588 14.1641 15.3588Z" stroke="#220068" stroke-width="1.5" stroke-miterlimit="10" stroke-linecap="round" stroke-linejoin="round"/>
<path d="M10.0005 9.4668V9.29183C10.0005 8.72516 10.3505 8.42515 10.7005 8.18348C11.0422 7.95015 11.3838 7.65016 11.3838 7.10016C11.3838 6.33349 10.7672 5.7168 10.0005 5.7168C9.23383 5.7168 8.61719 6.33349 8.61719 7.10016" stroke="#220068" stroke-width="1.5" stroke-linecap="round" stroke-linejoin="round"/>
<path d="M9.99885 11.4577H10.0064" stroke="#220068" stroke-width="1.5" stroke-linecap="round" stroke-linejoin="round"/>
</svg>
